<?xml version="1.0" encoding="utf-8"?>
<!-- Generator: Adobe Illustrator 24.2.1, SVG Export Plug-In . SVG Version: 6.00 Build 0)  -->
<svg version="1.1" id="Layer_1" xmlns="http://www.w3.org/2000/svg" xmlns:xlink="http://www.w3.org/1999/xlink" x="0px" y="0px"
	 viewBox="0 0 148.6 147.3" style="enable-background:new 0 0 148.6 147.3;" xml:space="preserve">
<style type="text/css">
	.st0{fill:#00529B;}
</style>
<g>
	<path class="st0" d="M77,78.9c-0.3,13.7-8.2,35.9-25.3,43.5c-12.1,5.4-25.9,0.6-35.2-8.5C1.2,98.9-3.6,74.1,3.6,53.9
		c3.6-12.1,13.7-25.7,26.7-28.8c6.9-2.1,15.2-0.8,21.4,2.5c3.6-5.7,8.6-11.4,14.3-15.3l0-0.2c-10.2-4.6-24.7-4-34.6,1.3
		C48.8,0.9,75.1-3.4,96.5,3.6c7.3,2.4,14.3,5.5,20.7,10.1c-10.9-5.5-25.9-7.6-37.8-2.5C54.7,21.9,46,48.7,45.8,73.7
		c0.5,14.1,4.2,27,11.3,38.2c4.6-3.6,6.7-8.8,8.9-13.6c3.4-8.4,4.8-17.5,5-27.3c0.3-16.1,7.7-39.3,26.1-46.8
		c13.9-5.7,28.3,0.9,37.9,12c11.6,14,16.4,34.1,11.3,52.2c-3.1,13.8-13.5,29.7-28.1,33.5c-7.1,2-15.5,0.9-21.7-2.6
		c-3.7,5.9-8.5,11.5-14.2,15.6l0,0.1c10.7,4.8,24.9,4,35.1-1.7c-18.9,14.1-48.4,17.9-70.7,8.5c-5.5-2.3-11-5.1-16-8.7
		c11.7,6.6,30,8.4,42.3,0.9c20-12,28.1-33.9,29.3-55.6C103.1,62.3,98.9,47.7,91,35c-4.8,3.8-7,9.2-9.2,14.3
		C78.2,58.5,77.2,68.2,77,78.9"/>
</g>
</svg>
